<?xml version="1.0"?><svg enable-background="new 0 0 64 64" version="1.1" viewBox="0 0 64 64" xml:space="preserve" xmlns="http://www.w3.org/2000/svg" xmlns:xlink="http://www.w3.org/1999/xlink"><g id="row_4"/><g id="row_3"/><g id="row_2"/><g id="row_1"><g id="wallet"><path d="M4.1,50.1c0.2-1.6,1.1-3,2.3-3.9c1-0.8,2.2-1.2,3.6-1.2c1.5,0,2.8,0.5,3.9,1.4c0.4,0.5,0.8,1,1.2,1.4    c0.6,0.9,0.9,2,0.9,3.2c0,0.1,0,0.2,0,0.2c-0.1,2.4-1.6,4.5-3.7,5.3C11.6,56.8,10.8,57,10,57c-0.1,0-0.3,0-0.4,0    C6.5,56.8,4,54.2,4,51C4,50.7,4,50.4,4.1,50.1z" fill="#FFCA28"/><path d="M9.1,36.1c0.2-1.6,1.1-3,2.3-3.9c1-0.8,2.2-1.2,3.6-1.2c1.5,0,2.8,0.5,3.9,1.4c0.4,0.5,0.8,1,1.2,1.4    c0.6,0.9,0.9,2,0.9,3.2c0,0.1,0,0.2,0,0.2c-0.1,2.4-1.6,4.5-3.7,5.3C16.6,42.8,15.8,43,15,43c-0.1,0-0.3,0-0.4,0    C11.5,42.8,9,40.2,9,37C9,36.7,9,36.4,9.1,36.1z" fill="#FFB300"/><path d="M17.1,44.1c0.2-1.6,1.1-3,2.3-3.9c1-0.8,2.2-1.2,3.6-1.2c1.5,0,2.8,0.5,3.9,1.4c0.4,0.5,0.8,1,1.2,1.4    c0.6,0.9,0.9,2,0.9,3.2c0,0.1,0,0.2,0,0.2c-0.1,2.4-1.6,4.5-3.7,5.3C24.6,50.8,23.8,51,23,51c-0.1,0-0.3,0-0.4,0    c-3.1-0.2-5.6-2.8-5.6-6C17,44.7,17,44.4,17.1,44.1z" fill="#FFA000"/><path d="M26.1,47.8c0.3-2.1,1.5-3.9,3.1-5.2c1.3-1,3-1.6,4.8-1.6c2,0,3.8,0.7,5.2,1.9c0.5,0.7,1,1.3,1.6,1.9    C41.6,46,42,47.5,42,49c0,0.1,0,0.2,0,0.3c-0.1,3.2-2.1,6-5,7.1c-0.9,0.4-1.9,0.6-3,0.6c-0.2,0-0.4,0-0.5,0    c-4.2-0.3-7.5-3.7-7.5-8C26,48.6,26,48.2,26.1,47.8z" fill="#FFB300"/><path d="M18.1,52.9c0.3-1.8,1.3-3.4,2.7-4.5C22,47.5,23.4,47,25,47c1.7,0,3.3,0.6,4.5,1.7c0.4,0.6,0.9,1.1,1.4,1.7    c0.7,1.1,1,2.3,1,3.7c0,0.1,0,0.2,0,0.3c-0.1,2.8-1.9,5.2-4.3,6.2C26.8,60.8,25.9,61,25,61c-0.2,0-0.3,0-0.5,0    c-3.7-0.2-6.5-3.3-6.5-7C18,53.6,18,53.3,18.1,52.9z" fill="#FFD54F"/><path d="M7.1,45.8c0.3-2.1,1.5-3.9,3.1-5.2c1.3-1,3-1.6,4.8-1.6c2,0,3.8,0.7,5.2,1.9c0.5,0.7,1,1.3,1.6,1.9    C22.6,44,23,45.5,23,47c0,0.1,0,0.2,0,0.3c-0.1,3.2-2.1,6-5,7.1c-0.9,0.4-2,0.6-3,0.6c-0.2,0-0.3,0-0.5,0C10.3,54.7,7,51.2,7,47    C7,46.6,7,46.2,7.1,45.8z" fill="#FFE082"/><path d="M56,34.1c-0.3,1-0.7,2-1.2,2.9C55.3,36.1,55.7,35.1,56,34.1C52.5,40,46,44,38.5,44    C27.2,44,18,34.8,18,23.5c0-0.7,0-1.3,0.1-2c0.1-1,0.3-2,0.5-3c-1.7,3-2.6,6.4-2.6,10c0,0.9,0.1,1.8,0.2,2.6c0.5,3.6,1.9,7,4,9.8    c0.6,0.5,1.2,1.2,1.6,1.9c3.4,3.4,7.9,5.7,13,6.1c0.6,0.1,1.1,0.1,1.7,0.1c1.9,0,3.7-0.3,5.5-0.7c7-1.9,12.6-7.6,14.4-14.7    C56.3,33.8,56.2,33.9,56,34.1z" fill="#C51162"/><path d="M36.5,50c-5.8,0-11.3-2.3-15.4-6.5c-0.6-0.6-1.2-1.3-1.7-2c-2.3-3-3.7-6.6-4.2-10.3    c-0.1-0.9-0.2-1.8-0.2-2.7c0-3.7,0.9-7.3,2.8-10.5l1.8,0.9c-1.7,3-2.5,6.2-2.5,9.6c0,0.8,0.1,1.7,0.2,2.5c0.4,3.4,1.7,6.6,3.8,9.3    c0.5,0.6,1,1.2,1.5,1.8c3.7,3.8,8.7,5.9,14,5.9c1.8,0,3.5-0.2,5.2-0.7c6.7-1.8,11.9-7.2,13.7-14l1.9,0.5    c-1.9,7.5-7.7,13.4-15.1,15.4C40.4,49.7,38.4,50,36.5,50z" fill="#3E2723"/><path d="M18.1,21.5    c-0.7,2-1.1,4.2-1.1,6.5c0,11,8.9,20,20,20c8.9,0,16.5-5.8,19.1-13.9c0,0,0,0,0-0.1" fill="none" id="light_3_" stroke="#B2EBF2" stroke-dasharray="1" stroke-miterlimit="10" stroke-width="2"/><path d="M38.5,45C26.6,45,17,35.4,17,23.5c0-0.7,0-1.4,0.1-2.1c0.1-1.1,0.3-2.2,0.6-3.2C20.1,8.7,28.6,2,38.5,2    c0.2,0,0.3,0,0.5,0c0.1,0,0.2,0,0.2,0v2c-0.1,0-0.3,0-0.4,0c-0.1,0-0.2,0-0.4,0c-9,0-16.7,6.1-18.9,14.7c-0.2,0.9-0.4,1.9-0.5,2.9    C19,22.2,19,22.8,19,23.5C19,34.3,27.7,43,38.5,43c6.9,0,13.1-3.5,16.7-9.4l0.3-0.5c0,0,0-0.1,0.1-0.1l0.2-0.4    c1.5-2.8,2.3-5.9,2.3-9.1c0-0.1,0-0.3,0-0.4c0-0.1,0-0.2,0-0.4h2c0,0.1,0,0.1,0,0.2c0,0.2,0,0.4,0,0.6c0,3.7-0.9,7.3-2.7,10.5    L57,34.6h-0.1c0,0,0,0,0,0C53,41.1,46.1,45,38.5,45z" fill="#3E2723"/><path d="M56.1,34.1C52.5,40,46,44,38.5,44C27.2,44,18,34.8,18,23.5c0-0.7,0-1.3,0.1-2c0.1-1,0.3-2,0.5-3    C20.9,9.6,28.9,3,38.5,3c0.2,0,0.3,0,0.5,0c-10,0.5-18,8.8-18,19c0,10.5,8.5,19,19,19c10.1,0,18.4-8,19-18c0,0.2,0,0.3,0,0.5    c0,3.7-1,7.1-2.7,10.1c0,0,0,0,0,0C56.3,33.8,56.2,33.9,56.1,34.1z" fill="#EF6C00"/><path d="M49.9,20.7C50,21.1,50,21.5,50,22c0,5.5-4.5,10-10,10s-10-4.5-10-10s4.5-10,10-10c0.5,0,0.9,0,1.3,0.1    c0,0.2,0.1,0.4,0.3,0.5l7.8,7.8C49.5,20.6,49.7,20.6,49.9,20.7z" fill="#FFA726"/><path d="M58.7,14.8l-1.8,1c0,0.1,0.1,0.2,0.1,0.3l-6.3,4.5c-0.2,0.2-0.5,0.2-0.7,0.2C50,21.1,50,21.5,50,22    c0,5.5-4.5,10-10,10s-10-4.5-10-10c0-5.5,4.5-10,10-10c0.5,0,0.9,0,1.3,0.1c0-0.3,0-0.5,0.2-0.7L46,5.1c0.1,0,0.2,0,0.3,0.1l1-1.8    C44.9,2.5,42.3,2,40,2c-0.4,0-0.7,0-1.1,0C28.3,2.6,20,11.4,20,22c0,11,9,20,20,20c10.6,0,19.4-8.3,20-18.9c0-0.4,0-0.7,0-1.1    C60,19.7,59.5,17.1,58.7,14.8z" fill="#FB8C00"/><g id="light_2_"><path d="M45.7,4.9C43.9,4.3,42,4,40,4     c-9.9,0-18,8.1-18,18s8.1,18,18,18s18-8.1,18-18c0-2-0.3-3.9-0.9-5.7" fill="none" stroke="#FFF3E0" stroke-dasharray="2" stroke-miterlimit="10"/><path d="M51.8,19.7c0.2,0.7,0.2,1.5,0.2,2.3     c0,6.6-5.4,12-12,12s-12-5.4-12-12s5.4-12,12-12c0.8,0,1.6,0.1,2.3,0.2" fill="none" stroke="#FFF3E0" stroke-dasharray="2" stroke-miterlimit="10"/></g><path d="M59.3,11.4l-8.8-8.8c-0.9-0.9-2.3-0.8-3,0.3l-6,8.4c-0.2,0.2-0.2,0.5-0.2,0.7c0,0.2,0.1,0.4,0.3,0.5    l7.8,7.8c0.2,0.2,0.4,0.3,0.6,0.3c0.3,0,0.5,0,0.7-0.2l8.4-6C60.1,13.8,60.2,12.3,59.3,11.4z" fill="#F57C00"/><polyline fill="none" points="59.3,11.4 50.2,18.4 43.6,11.8     50.6,2.7   " stroke="#FFF3E0" stroke-dasharray="2" stroke-miterlimit="10"/></g></g></svg>